<svg xmlns="http://www.w3.org/2000/svg" viewBox="0 0 960 540" role="img" aria-labelledby="title desc">
  <title id="title">Media Current background</title>
  <desc id="desc">Abstract dark media stream background with poster tiles, bubbles, and newsletter current lines.</desc>
  <defs>
    <radialGradient id="glowA" cx="22%" cy="18%" r="55%">
      <stop offset="0" stop-color="#7c4dff" stop-opacity="0.32"/>
      <stop offset="0.5" stop-color="#00a4dc" stop-opacity="0.12"/>
      <stop offset="1" stop-color="#07111f" stop-opacity="0"/>
    </radialGradient>
    <radialGradient id="glowB" cx="82%" cy="72%" r="48%">
      <stop offset="0" stop-color="#00f5d4" stop-opacity="0.18"/>
      <stop offset="1" stop-color="#07111f" stop-opacity="0"/>
    </radialGradient>
    <linearGradient id="line" x1="0" y1="0" x2="960" y2="540" gradientUnits="userSpaceOnUse">
      <stop offset="0" stop-color="#8b5cf6" stop-opacity="0"/>
      <stop offset="0.45" stop-color="#00a4dc" stop-opacity="0.5"/>
      <stop offset="1" stop-color="#00f5d4" stop-opacity="0"/>
    </linearGradient>
  </defs>
  <rect width="960" height="540" fill="#07111f"/>
  <rect width="960" height="540" fill="url(#glowA)"/>
  <rect width="960" height="540" fill="url(#glowB)"/>
  <g fill="none" stroke="url(#line)" stroke-width="2">
    <path d="M-60 145C140 85 240 214 426 163s303-156 594-62"/>
    <path d="M-30 352C122 260 253 372 430 305s365-101 560-16" opacity="0.75"/>
    <path d="M50 492C208 400 350 454 508 396s248-115 452-62" opacity="0.55"/>
  </g>
  <g opacity="0.28" fill="#dffcff">
    <rect x="104" y="88" width="58" height="82" rx="8"/>
    <rect x="734" y="72" width="54" height="78" rx="8"/>
    <rect x="635" y="358" width="64" height="92" rx="9"/>
    <rect x="231" y="390" width="50" height="72" rx="8"/>
  </g>
  <g fill="#00f5d4" opacity="0.45">
    <circle cx="190" cy="232" r="5"/>
    <circle cx="828" cy="214" r="4"/>
    <circle cx="534" cy="112" r="3"/>
    <circle cx="710" cy="482" r="5"/>
  </g>
</svg>
